<svg xmlns="http://www.w3.org/2000/svg" viewBox="0 0 142.3 177.36"><defs><style>.cls-1,.cls-5{fill:#12163c;}.cls-1{stroke:#fff;stroke-miterlimit:10;stroke-width:4px;}.cls-2{fill:#fff;}.cls-3{fill:#f7941d;}.cls-4{fill:#7e1329;}</style></defs><title>File_MusicAsset 1</title><g id="Layer_2" data-name="Layer 2"><g id="Click_Panels" data-name="Click Panels"><polyline class="cls-1" points="110.34 2 140.3 32.54 140.3 175.36 2 175.36 2 2 110.34 2"/><polygon class="cls-1" points="111.76 2 140.3 30.97 140.3 36.38 111.76 36.38 107.35 36.38 107.35 2 111.76 2"/><circle class="cls-2" cx="71.15" cy="108.55" r="53.44"/><circle class="cls-3" cx="71.15" cy="108.55" r="47.32"/><circle class="cls-2" cx="71.15" cy="108.55" r="22.72"/><circle class="cls-4" cx="71.15" cy="108.55" r="17.85"/><circle class="cls-5" cx="71.15" cy="108.55" r="0.58"/><polygon class="cls-5" points="117.2 74.42 116.06 103.22 104.63 120.78 106.58 122.15 106.78 122.55 106.84 122.95 106.92 123.45 106.81 123.8 106.58 124.15 97.25 137.72 96.91 137.94 96.31 138.07 96 138.14 95.59 138.23 89.23 134.26 89.12 133.79 89 133.23 89.12 132.68 97.9 117.76 98.39 117.52 99.02 117.34 99.46 117.51 101.4 118.78 112.31 102.06 113.8 68.78 117.2 74.42"/></g></g></svg>