<svg xmlns="http://www.w3.org/2000/svg" viewBox="0 0 1203.79 709.42"><defs><style>.cls-1{fill:#262262;}.cls-2{fill:#7e1329;opacity:0.69;}.cls-3{fill:#fff;}.cls-4{fill:#f15a29;opacity:0.71;}.cls-5{font-size:72px;fill:#231f20;font-family:StrongGlasgowDEMO-light, Strong Glasgow DEMO;}.cls-6,.cls-7{fill:#c57e2a;}.cls-6{opacity:0.59;}</style></defs><title>Hero_ImageAsset 3</title><g id="Layer_2" data-name="Layer 2"><g id="hero_2" data-name="hero 2"><path class="cls-1" d="M820.64.37a334.41,334.41,0,0,1,7.26,69.4c0,184-149.14,333.12-333.12,333.12S161.66,253.76,161.66,69.78A334.41,334.41,0,0,1,168.93.37H0V631.32H920.91V.37Z"/><path class="cls-1" d="M494.78,402.9c184,0,333.12-149.14,333.12-333.12A334.41,334.41,0,0,0,820.64.37H168.93a334.41,334.41,0,0,0-7.26,69.4C161.66,253.76,310.81,402.9,494.78,402.9Z"/><path class="cls-2" d="M494.78,402.9c184,0,333.12-149.14,333.12-333.12A334.41,334.41,0,0,0,820.64.37H168.93a334.41,334.41,0,0,0-7.26,69.4C161.66,253.76,310.81,402.9,494.78,402.9Z"/><path class="cls-3" d="M287.08,321.47a75.75,75.75,0,0,1-6.13,30.23,77.8,77.8,0,0,1-41.5,41.49,75.64,75.64,0,0,1-30.23,6.13,77.31,77.31,0,0,1-17.68-2,78.14,78.14,0,0,1-16.26-5.7v61.6H131.36V243.61l7.7-1.14,8.84,31.37A75.24,75.24,0,0,1,175,251.59a76.69,76.69,0,0,1,34.22-8,75.77,75.77,0,0,1,30.23,6.13,77.8,77.8,0,0,1,41.5,41.49A75.81,75.81,0,0,1,287.08,321.47Zm-111.79,61a69,69,0,0,0,16.11,6.7,66,66,0,0,0,17.82,2.43,67.08,67.08,0,0,0,27.24-5.56,71.73,71.73,0,0,0,37.36-37.36,69.46,69.46,0,0,0,0-54.47,70.3,70.3,0,0,0-15.11-22.1,73.4,73.4,0,0,0-22.25-15,69.51,69.51,0,0,0-61.17,3.28Z"/><path class="cls-3" d="M448.2,445.24v8H307.61V243.61h43.92V445.24Z"/><path class="cls-4" d="M301.6,631.52A226.91,226.91,0,0,1,294.23,574c0-125.12,101.43-226.54,226.54-226.54S747.32,448.89,747.32,574a226.89,226.89,0,0,1-7.45,57.85"/><path class="cls-3" d="M490.55,452.93a21.14,21.14,0,0,1-15.5-6.27,21.93,21.93,0,0,1,0-30.8,22.28,22.28,0,0,1,31,0,21.92,21.92,0,0,1,0,30.8A21.14,21.14,0,0,1,490.55,452.93Z"/><path class="cls-3" d="M596.21,292.66l-21.1-49.05h48.48l89.26,209.61H664.37l-26.24-61.6H565.41l-24.24,61.6h-8.56Zm-27.66,91H635l-34.51-80.42Z"/><path class="cls-3" d="M777.3,453.22H733.38V243.32H777.3Z"/><line class="cls-2" x1="30.21" y1="631.32" x2="0.01" y2="631.32"/><path class="cls-2" d="M0,631.32V384.62a197.5,197.5,0,0,1,150.18-69c109.32,0,197.95,88.62,197.95,197.95a197.07,197.07,0,0,1-39,117.94"/><text class="cls-5" transform="translate(970.82 648.74)">PL.AI</text><path class="cls-6" d="M920.91,104.91c-13.92-20.17-32.23-40.56-56.27-60l-24,0L818.91,58l0,30.5,0,30.5,10.92,26.13-1.48,26.24L819.07,197,808,205.51,790.1,218.32,779,225.16l-22.16,10.26-23.87,0-19.61,0-25.59-13.61-25.6-22.14-13.66-17.89L637.41,152l0-35,0-40.07,19.57-39.24L677.32,7.85,689.83.37H860.57l4,2.15L905,33.17l15.91,18.64"/><path class="cls-6" d="M920.91,462.29c-26,30.77-60.83,60-107.42,84.27C608.13,653.37,344,386.22,344,386.22S210.11,228.87,178.25,141.55L97.94.38,103.36,0l34.41,0L248.42,158.68C270.94,179.83,408.79,359.68,659,411c140.74,28.88,219-21.64,260.53-71.37"/><path class="cls-7" d="M144.78,205.5"/><path class="cls-7" d="M144.78,205.5"/></g></g></svg>