<svg xmlns="http://www.w3.org/2000/svg" viewBox="0 0 920.91 631.52"><defs><style>.cls-1{fill:#262262;}.cls-2{fill:#7e1329;opacity:0.69;}.cls-3{fill:#c57e2a;opacity:0.59;}</style></defs><title>no_text_plaiheroAsset 7</title><g id="Layer_2" data-name="Layer 2"><g id="hero_2" data-name="hero 2"><path class="cls-1" d="M820.64.37a334.41,334.41,0,0,1,7.26,69.4c0,184-149.14,333.12-333.12,333.12S161.66,253.76,161.66,69.78A334.41,334.41,0,0,1,168.93.37H0V631.32H920.91V.37Z"/><path class="cls-1" d="M494.78,402.9c184,0,333.12-149.14,333.12-333.12A334.41,334.41,0,0,0,820.64.37H168.93a334.41,334.41,0,0,0-7.26,69.4C161.66,253.76,310.81,402.9,494.78,402.9Z"/><path class="cls-2" d="M494.78,402.9c184,0,333.12-149.14,333.12-333.12A334.41,334.41,0,0,0,820.64.37H168.93a334.41,334.41,0,0,0-7.26,69.4C161.66,253.76,310.81,402.9,494.78,402.9Z"/><path class="cls-3" d="M920.91,462.29c-26,30.77-60.83,60-107.42,84.27C608.13,653.37,344,386.22,344,386.22S210.11,228.87,178.25,141.55L97.94.38,103.36,0l34.41,0L248.42,158.68C270.94,179.83,408.79,359.68,659,411c140.74,28.88,219-21.64,260.53-71.37"/><line class="cls-2" x1="30.21" y1="631.32" x2="0.01" y2="631.32"/><path class="cls-2" d="M0,631.32V384.62a197.5,197.5,0,0,1,150.18-69c109.32,0,197.95,88.62,197.95,197.95a197.07,197.07,0,0,1-39,117.94"/><path class="cls-3" d="M920.91,104.91c-13.92-20.17-32.23-40.56-56.27-60l-24,0L818.91,58l0,30.5,0,30.5,10.92,26.13-1.48,26.24L819.07,197,808,205.51,790.1,218.32,779,225.16l-22.16,10.26-23.87,0-19.61,0-25.59-13.61-25.6-22.14-13.66-17.89L637.41,152l0-35,0-40.07,19.57-39.24L677.32,7.85,689.83.37H860.57l4,2.15L905,33.17l15.91,18.64"/></g></g></svg>