<svg xmlns="http://www.w3.org/2000/svg" viewBox="0 0 284.17 134.04"><defs><style>.cls-1{fill:#fff;stroke:#12163c;stroke-miterlimit:10;stroke-width:2px;}.cls-2{fill:#12163c;}</style></defs><title>Plai_PianoAsset 2</title><g id="Layer_2" data-name="Layer 2"><g id="Click_Panels" data-name="Click Panels"><rect class="cls-1" x="1" y="1" width="28.38" height="132.04"/><rect class="cls-1" x="29.38" y="1" width="28.38" height="132.04"/><rect class="cls-1" x="57.41" y="1" width="28.38" height="132.04"/><rect class="cls-1" x="85.79" y="1" width="28.38" height="132.04"/><rect class="cls-1" x="113.56" y="1" width="28.38" height="132.04"/><rect class="cls-1" x="141.94" y="1" width="28.38" height="132.04"/><rect class="cls-1" x="170.26" y="1" width="28.38" height="132.04"/><rect class="cls-1" x="198.64" y="1" width="28.38" height="132.04"/><rect class="cls-1" x="226.42" y="1" width="28.38" height="132.04"/><rect class="cls-1" x="254.79" y="1" width="28.38" height="132.04"/><rect class="cls-2" x="21.18" y="19.22" width="16.39" height="72.25"/><rect class="cls-2" x="49.22" y="19.22" width="16.39" height="72.25"/><rect class="cls-2" x="105.54" y="19.22" width="16.39" height="72.25"/><rect class="cls-2" x="133.57" y="19.22" width="16.39" height="72.25"/><rect class="cls-2" x="162.07" y="19.22" width="16.39" height="72.25"/><rect class="cls-2" x="219.26" y="19.22" width="16.39" height="72.25"/><rect class="cls-2" x="247.29" y="19.22" width="16.39" height="72.25"/></g></g></svg>